<svg height="109" viewBox="0 0 109 109" width="109" xmlns="http://www.w3.org/2000/svg">
<rect fill="none" height="106" rx="8" ry="8" stroke="gray" stroke-linejoin="miter" stroke-width="3" width="106" x="1.5" y="1.5"/>
<line stroke="gray" stroke-dasharray="2,2" stroke-linecap="round" stroke-width="1" x1="54.5" x2="109" y1="54.5" y2="54.5"/>
<line stroke="gray" stroke-dasharray="2,2" stroke-linecap="round" stroke-width="1" x1="54.5" x2="0" y1="54.5" y2="54.5"/>
<line stroke="gray" stroke-dasharray="2,2" stroke-linecap="round" stroke-width="1" x1="54.5" x2="54.5" y1="54.5" y2="0"/>
<line stroke="gray" stroke-dasharray="2,2" stroke-linecap="round" stroke-width="1" x1="54.5" x2="54.5" y1="54.5" y2="109"/>
<path d="M25,25 L84,84 M84,25 L25,84" fill="none" opacity="0.15" stroke="#D0021B" stroke-linecap="round" stroke-width="20"/>
<path d="M20.654949828982353,78.90172380208969 C20.654949828982353,78.90172380208969 20.654949828982172,78.90172380208969 47.74271118391721,75.93260191538688 C47.74271118391721,75.93260191538688 47.74271118391721,75.93260191538688 47.74271118391721,75.93260191538688 L53.16895503799706,75.43447153838086 L58.604842088017385,75.04251238308372 C87.66305006823266,75.04251238308372 40.365096480016106,74.53587883274653 69.49090017788777,74.53587883274653 L74.90510373002647,73.92533624064848 L80.35442398207864,74.01141057232824 L83.86362552642822,73.4698098897934" fill="none" stroke="darkgrey" stroke-linecap="round" stroke-linejoin="round" stroke-width="3"/>
</svg>