<svg height="109" viewBox="0 0 109 109" width="109" xmlns="http://www.w3.org/2000/svg">
<rect fill="none" height="106" rx="8" ry="8" stroke="gray" stroke-linejoin="miter" stroke-width="3" width="106" x="1.5" y="1.5"/>
<line stroke="gray" stroke-dasharray="2,2" stroke-linecap="round" stroke-width="1" x1="54.5" x2="109" y1="54.5" y2="54.5"/>
<line stroke="gray" stroke-dasharray="2,2" stroke-linecap="round" stroke-width="1" x1="54.5" x2="0" y1="54.5" y2="54.5"/>
<line stroke="gray" stroke-dasharray="2,2" stroke-linecap="round" stroke-width="1" x1="54.5" x2="54.5" y1="54.5" y2="0"/>
<line stroke="gray" stroke-dasharray="2,2" stroke-linecap="round" stroke-width="1" x1="54.5" x2="54.5" y1="54.5" y2="109"/>
<path d="M25,25 L84,84 M84,25 L25,84" fill="none" opacity="0.15" stroke="#D0021B" stroke-linecap="round" stroke-width="20"/>
<path d="M28.628490835428238,32.84380057454109 C44.21316025654475,31.14630189538002 59.79782967766126,29.44880321621895 75.38249909877777,27.751304537057877" fill="none" stroke="darkgrey" stroke-linecap="round" stroke-linejoin="round" stroke-width="3"/>
<path d="M39.86376953125,42.123270094394684 C50.73683812220891,40.99167252580325 61.609906713167824,39.86007495721181 72.48297530412674,38.72847738862038" fill="none" stroke="#DC4A38" stroke-linecap="round" stroke-linejoin="round" stroke-width="3"/>
<path d="M36.8915551006794,53.7792754471302 C48.51368341843287,52.98709575335185 60.13581173618635,52.19491605957349 71.75794005393982,51.402736365795135" fill="none" stroke="darkgrey" stroke-linecap="round" stroke-linejoin="round" stroke-width="3"/>
<path d="M21.81426753103733,79.24114167690277 C43.87456424037615,77.77012731631598 65.93486094971499,76.29911295572916 87.9951576590538,74.82809859514236" fill="none" stroke="darkgrey" stroke-linecap="round" stroke-linejoin="round" stroke-width="3"/>
</svg>