<svg height="109" viewBox="0 0 109 109" width="109" xmlns="http://www.w3.org/2000/svg">
<rect fill="none" height="106" rx="8" ry="8" stroke="gray" stroke-linejoin="miter" stroke-width="3" width="106" x="1.5" y="1.5"/>
<line stroke="gray" stroke-dasharray="2,2" stroke-linecap="round" stroke-width="1" x1="54.5" x2="109" y1="54.5" y2="54.5"/>
<line stroke="gray" stroke-dasharray="2,2" stroke-linecap="round" stroke-width="1" x1="54.5" x2="0" y1="54.5" y2="54.5"/>
<line stroke="gray" stroke-dasharray="2,2" stroke-linecap="round" stroke-width="1" x1="54.5" x2="54.5" y1="54.5" y2="0"/>
<line stroke="gray" stroke-dasharray="2,2" stroke-linecap="round" stroke-width="1" x1="54.5" x2="54.5" y1="54.5" y2="109"/>
<circle cx="54.5" cy="54.5" fill="none" opacity="0.15" r="29.5" stroke="#D0021B" stroke-width="20"/>
<path d="M52.108,44.764 C63.166,45.159 85.62,45.603 96.678,45.998" fill="none" stroke="darkgrey" stroke-linecap="round" stroke-linejoin="round" stroke-width="3"/>
<path d="M74.431,22.274 C75.931,44.706 81.394,91.607 79.914,92.346 C78.435,93.085 73.835,88.152 71.545,86.178" fill="none" stroke="darkgrey" stroke-linecap="round" stroke-linejoin="round" stroke-width="3"/>
<path d="M58.852,59.967 C61.537,62.653 63.675,67.456 66.361,70.142" fill="none" stroke="darkgrey" stroke-linecap="round" stroke-linejoin="round" stroke-width="3"/>
<path d="M13.507,42.724 C25.196,43.276 36.92,44.098 48.609,44.651" fill="none" stroke="darkgrey" stroke-linecap="round" stroke-linejoin="round" stroke-width="3"/>
<path d="M35.617,22.49 C35.301,42.553 34.974,72.351 34.658,92.413" fill="none" stroke="darkgrey" stroke-linecap="round" stroke-linejoin="round" stroke-width="3"/>
<path d="M35.462,44.848 C30.407,52.194 20.819,66.459 15.764,73.804" fill="none" stroke="darkgrey" stroke-linecap="round" stroke-linejoin="round" stroke-width="3"/>
<path d="M40.578,53.204 C43.422,55.337 46.125,60.822 48.969,62.955" fill="none" stroke="darkgrey" stroke-linecap="round" stroke-linejoin="round" stroke-width="3"/>
</svg>