<svg height="109" viewBox="0 0 109 109" width="109" xmlns="http://www.w3.org/2000/svg">
<rect fill="none" height="106" rx="8" ry="8" stroke="gray" stroke-linejoin="miter" stroke-width="3" width="106" x="1.5" y="1.5"/>
<line stroke="gray" stroke-dasharray="2,2" stroke-linecap="round" stroke-width="1" x1="54.5" x2="109" y1="54.5" y2="54.5"/>
<line stroke="gray" stroke-dasharray="2,2" stroke-linecap="round" stroke-width="1" x1="54.5" x2="0" y1="54.5" y2="54.5"/>
<line stroke="gray" stroke-dasharray="2,2" stroke-linecap="round" stroke-width="1" x1="54.5" x2="54.5" y1="54.5" y2="0"/>
<line stroke="gray" stroke-dasharray="2,2" stroke-linecap="round" stroke-width="1" x1="54.5" x2="54.5" y1="54.5" y2="109"/>
<circle cx="54.5" cy="54.5" fill="none" opacity="0.15" r="29.5" stroke="#D0021B" stroke-width="20"/>
<path d="M58.193,21.033 C58.409,23.211 58.448,28.068 58.663,30.246" fill="none" stroke="darkgrey" stroke-linecap="round" stroke-linejoin="round" stroke-width="3"/>
<path d="M42.902,32.039 C57.616,31.467 60.281,29.838 74.995,29.266" fill="none" stroke="darkgrey" stroke-linecap="round" stroke-linejoin="round" stroke-width="3"/>
<path d="M47.907,37.489 C49.112,43.321 50.317,38.798 51.521,44.63" fill="none" stroke="darkgrey" stroke-linecap="round" stroke-linejoin="round" stroke-width="3"/>
<path d="M67.079,31.821 C66.295,37.613 65.511,37.631 64.727,43.422" fill="none" stroke="darkgrey" stroke-linecap="round" stroke-linejoin="round" stroke-width="3"/>
<path d="M32.576,48.221 C50.331,47.111 68.203,46.055 85.958,44.946" fill="none" stroke="darkgrey" stroke-linecap="round" stroke-linejoin="round" stroke-width="3"/>
<path d="M46.462,54.556 C46.627,60.998 46.784,73.832 46.949,80.275" fill="none" stroke="darkgrey" stroke-linecap="round" stroke-linejoin="round" stroke-width="3"/>
<path d="M47.305,61.383 C54.645,59.422 68.864,53.784 70.214,55.003 C71.564,56.221 67.615,72.203 66.39,79.836" fill="none" stroke="darkgrey" stroke-linecap="round" stroke-linejoin="round" stroke-width="3"/>
<path d="M47.677,65.417 C53.461,65.02 63.805,64.539 69.59,64.141" fill="none" stroke="darkgrey" stroke-linecap="round" stroke-linejoin="round" stroke-width="3"/>
<path d="M47.942,76.162 C55.64,76.143 61.652,76.121 69.35,76.103" fill="none" stroke="darkgrey" stroke-linecap="round" stroke-linejoin="round" stroke-width="3"/>
</svg>