<svg height="109" viewBox="0 0 109 109" width="109" xmlns="http://www.w3.org/2000/svg">
<rect fill="none" height="106" rx="8" ry="8" stroke="gray" stroke-linejoin="miter" stroke-width="3" width="106" x="1.5" y="1.5"/>
<line stroke="gray" stroke-dasharray="2,2" stroke-linecap="round" stroke-width="1" x1="54.5" x2="109" y1="54.5" y2="54.5"/>
<line stroke="gray" stroke-dasharray="2,2" stroke-linecap="round" stroke-width="1" x1="54.5" x2="0" y1="54.5" y2="54.5"/>
<line stroke="gray" stroke-dasharray="2,2" stroke-linecap="round" stroke-width="1" x1="54.5" x2="54.5" y1="54.5" y2="0"/>
<line stroke="gray" stroke-dasharray="2,2" stroke-linecap="round" stroke-width="1" x1="54.5" x2="54.5" y1="54.5" y2="109"/>
<path d="M25,25 L84,84 M84,25 L25,84" fill="none" opacity="0.15" stroke="#D0021B" stroke-linecap="round" stroke-width="20"/>
<rect fill="#D98A00" height="31.772" opacity="0.3" rx="4" ry="4" width="57.381" x="30.576" y="50.503"/>
<rect fill="#D98A00" height="28.024" opacity="0.3" rx="4" ry="4" width="28.265" x="39.329" y="19.033"/>
<path d="M53.044,52.503 C53.26,54.681 53.475,56.859 53.69,59.037" fill="none" stroke="darkgrey" stroke-linecap="round" stroke-linejoin="round" stroke-width="3"/>
<path d="M32.576,59.402 C47.29,58.83 62.004,58.258 76.718,57.686" fill="none" stroke="darkgrey" stroke-linecap="round" stroke-linejoin="round" stroke-width="3"/>
<path d="M43.609,60.162 C44.814,65.994 46.019,71.826 47.223,77.659" fill="none" stroke="darkgrey" stroke-linecap="round" stroke-linejoin="round" stroke-width="3"/>
<path d="M61.023,59.621 C60.239,65.412 59.454,71.204 58.67,76.995" fill="none" stroke="darkgrey" stroke-linecap="round" stroke-linejoin="round" stroke-width="3"/>
<path d="M32.693,80.275 C50.448,79.166 68.203,78.056 85.958,76.947" fill="none" stroke="darkgrey" stroke-linecap="round" stroke-linejoin="round" stroke-width="3"/>
<path d="M43.139,25.194 C43.304,31.636 43.469,38.079 43.633,44.521" fill="none" stroke="darkgrey" stroke-linecap="round" stroke-linejoin="round" stroke-width="3"/>
<path d="M43.573,26.916 C50.913,24.955 64.244,19.814 65.594,21.033 C66.944,22.252 63.144,36.298 61.918,43.931" fill="none" stroke="darkgrey" stroke-linecap="round" stroke-linejoin="round" stroke-width="3"/>
<path d="M45.285,33.632 C51.069,33.234 56.854,32.837 62.638,32.44" fill="none" stroke="darkgrey" stroke-linecap="round" stroke-linejoin="round" stroke-width="3"/>
<path d="M41.329,45.057 C49.027,45.039 56.726,45.021 64.424,45.002" fill="none" stroke="darkgrey" stroke-linecap="round" stroke-linejoin="round" stroke-width="3"/>
</svg>